<!DOCTYPE svg PUBLIC "-//W3C//DTD SVG 20010904//EN" "http://www.w3.org/TR/2001/REC-SVG-20010904/DTD/svg10.dtd">
<svg version="1.0" xmlns="http://www.w3.org/2000/svg" width="71px" height="93px" viewBox="0 0 710 930" preserveAspectRatio="xMidYMid meet">
<g id="layer101" fill="#2f7bbf" stroke="none">
 <path d="M411 879 c-18 -83 -24 -89 -85 -89 l-54 0 -24 65 c-25 71 -25 71 -93 45 -32 -12 -32 -30 0 -30 29 0 45 -30 45 -84 0 -18 9 -60 21 -95 12 -34 19 -64 17 -67 -3 -2 -26 -10 -52 -18 -46 -14 -48 -14 -53 5 -5 17 -11 19 -37 13 -35 -7 -48 -21 -42 -46 2 -10 -9 -34 -25 -54 -16 -20 -29 -40 -29 -43 0 -4 14 -15 30 -24 28 -17 60 -63 60 -87 0 -5 -9 -10 -19 -10 -39 0 -74 -87 -52 -129 8 -14 21 -21 40 -21 22 0 30 -6 35 -25 11 -42 73 -102 131 -126 30 -12 53 -27 52 -33 -1 -6 28 -14 66 -19 83 -10 145 7 205 58 42 37 92 123 92 161 0 17 5 20 24 17 31 -6 50 27 42 71 -7 36 -58 92 -75 82 -16 -10 -14 60 3 92 8 15 23 36 35 46 26 24 27 41 2 58 -10 7 -21 23 -25 36 -4 12 -13 22 -21 22 -7 0 -21 3 -30 6 -11 5 -18 0 -21 -12 -4 -16 -15 -19 -68 -19 l-63 0 14 70 c7 39 11 84 8 101 -3 17 -2 45 1 62 5 25 12 32 30 32 37 0 28 18 -13 29 -58 16 -61 15 -72 -40z m19 -66 c-11 -17 -11 -17 -6 0 3 10 7 26 7 35 1 15 2 15 6 0 2 -10 -1 -25 -7 -35z m-33 -100 c-20 -2 -52 -2 -70 0 -17 2 0 4 38 4 39 0 53 -2 32 -4z m-137 -127 c0 -2 -11 -6 -25 -8 -14 -3 -25 -1 -25 3 0 5 11 9 25 9 14 0 25 -2 25 -4z m330 -38 c17 -11 22 -10 30 2 5 8 12 11 16 7 4 -4 0 -15 -9 -24 -8 -10 -19 -30 -22 -46 -10 -37 -18 -40 -46 -18 -13 10 -37 25 -54 34 -27 15 -28 16 -7 17 12 0 22 6 22 14 0 13 14 20 43 25 4 0 16 -5 27 -11z m-402 -29 c2 -5 11 -9 20 -10 13 0 11 -4 -8 -17 -14 -9 -41 -32 -62 -50 -34 -31 -37 -32 -43 -13 -3 11 -18 30 -33 41 l-27 21 25 19 c19 15 28 16 39 7 11 -9 16 -8 25 6 8 13 18 16 36 12 14 -4 27 -11 28 -16z m307 -46 c135 -71 165 -233 65 -355 -33 -40 -130 -94 -140 -78 -3 5 -42 15 -85 21 -92 12 -140 34 -183 83 -103 118 -42 296 119 345 55 17 178 8 224 -16z"/>
 <path d="M292 344 c-12 -8 -22 -22 -22 -30 0 -18 3 -18 42 6 40 24 50 25 94 4 42 -20 58 -9 25 17 -29 24 -107 26 -139 3z"/>
 <path d="M482 308 c2 -13 10 -23 18 -23 8 0 16 10 18 23 3 17 -2 22 -18 22 -16 0 -21 -5 -18 -22z"/>
 <path d="M200 290 c0 -13 7 -20 20 -20 13 0 20 7 20 20 0 13 -7 20 -20 20 -13 0 -20 -7 -20 -20z"/>
 <path d="M564 263 c-21 -32 -32 -123 -15 -123 6 0 11 10 11 23 0 12 9 42 20 66 11 24 20 47 20 52 0 18 -18 8 -36 -18z"/>
 <path d="M380 215 c0 -8 17 -19 41 -26 22 -7 51 -25 64 -41 28 -33 35 -35 35 -10 0 26 -38 59 -89 77 -53 18 -51 18 -51 0z"/>
 <path d="M142 198 c3 -8 35 -15 89 -20 46 -3 104 -14 129 -23 72 -26 80 -28 80 -16 0 20 -47 41 -124 56 -98 19 -179 20 -174 3z"/>
 </g>

</svg>